<?xml version="1.0" encoding="UTF-8"?>
<svg width="9px" height="7px" viewBox="0 0 9 7" version="1.1" xmlns="http://www.w3.org/2000/svg" xmlns:xlink="http://www.w3.org/1999/xlink">
    <title>E279622B-F54C-4CBA-996B-D02B106AE9EE</title>
    <g id="Page-1" stroke="none" stroke-width="1" fill="none" fill-rule="evenodd">
        <g id="SÄkumlapa" transform="translate(-1376.000000, -679.000000)" fill="#E66F00">
            <g id="Products" transform="translate(210.000000, 660.000000)">
                <g id="Link" transform="translate(1030.000000, 13.000000)">
                    <g id="Path" transform="translate(136.000000, 6.000000)">
                        <path d="M0.247128653,5.62118298 C-0.0823762178,5.93660645 -0.0823762178,6.44800893 0.247128653,6.7634324 C0.576633525,7.07885587 1.11086648,7.07885587 1.44037135,6.7634324 L4.25287135,4.07112471 C4.58237622,3.75570124 4.58237622,3.24429876 4.25287135,2.92887529 L1.44037135,0.2365676 C1.11086648,-0.0788558666 0.576633525,-0.0788558666 0.247128653,0.2365676 C-0.0823762178,0.551991066 -0.0823762178,1.06339355 0.247128653,1.37881702 L2.46300731,3.5 L0.247128653,5.62118298 Z"></path>
                        <path d="M4.24712865,5.62118298 C3.91762378,5.93660645 3.91762378,6.44800893 4.24712865,6.7634324 C4.57663352,7.07885587 5.11086648,7.07885587 5.44037135,6.7634324 L8.25287135,4.07112471 C8.58237622,3.75570124 8.58237622,3.24429876 8.25287135,2.92887529 L5.44037135,0.2365676 C5.11086648,-0.0788558666 4.57663352,-0.0788558666 4.24712865,0.2365676 C3.91762378,0.551991066 3.91762378,1.06339355 4.24712865,1.37881702 L6.46300731,3.5 L4.24712865,5.62118298 Z"></path>
                    </g>
                </g>
            </g>
        </g>
    </g>
</svg>