<?xml version="1.0" encoding="UTF-8"?>
<svg width="30px" height="30px" viewBox="0 0 30 30" version="1.1" xmlns="http://www.w3.org/2000/svg" xmlns:xlink="http://www.w3.org/1999/xlink">
    <title>CD782F03-AEB8-47C9-8013-AF0817332A5C</title>
    <g id="Page-1" stroke="none" stroke-width="1" fill="none" fill-rule="evenodd">
        <g id="SÄkumlapa" transform="translate(-215.000000, -1133.000000)">
            <g id="Products" transform="translate(210.000000, 660.000000)">
                <g id="Products-/-Discounts" transform="translate(3.000000, 472.000000)">
                    <g id="ic_titleIcon_discount" transform="translate(2.000000, 1.000000)">
                        <circle id="icon-base" fill="#FFBB33" cx="15" cy="15" r="15"></circle>
                        <path d="M11.5,14.0000137 C10.3954305,14.0000137 9.5,13.1045832 9.5,12.0000137 C9.5,10.8954442 10.3954305,10.0000137 11.5,10.0000137 C12.6045695,10.0000137 13.5,10.8954442 13.5,12.0000137 C13.5,13.1045832 12.6045695,14.0000137 11.5,14.0000137 Z M18.5,20.0000137 C17.3954305,20.0000137 16.5,19.1045832 16.5,18.0000137 C16.5,16.8954442 17.3954305,16.0000137 18.5,16.0000137 C19.6045695,16.0000137 20.5,16.8954442 20.5,18.0000137 C20.5,19.1045832 19.6045695,20.0000137 18.5,20.0000137 Z M12.2525767,19.6585183 C11.8888946,20.0741549 11.257132,20.1162724 10.8414954,19.7525904 C10.4258588,19.3889083 10.3837413,18.7571457 10.7474233,18.3415091 L17.7474233,10.3415091 C18.1111054,9.92587246 18.742868,9.88375495 19.1585046,10.247437 C19.5741412,10.6111191 19.6162587,11.2428817 19.2525767,11.6585183 L12.2525767,19.6585183 Z" id="icon" fill="#FFFFFF" fill-rule="nonzero"></path>
                    </g>
                </g>
            </g>
        </g>
    </g>
</svg>