<?xml version="1.0" encoding="UTF-8"?>
<svg width="30px" height="30px" viewBox="0 0 30 30" version="1.1" xmlns="http://www.w3.org/2000/svg" xmlns:xlink="http://www.w3.org/1999/xlink">
    <title>28006ABD-5DD7-41B7-A6F1-1CF4AF6C74DA</title>
    <g id="Page-1" stroke="none" stroke-width="1" fill="none" fill-rule="evenodd">
        <g id="SÄkumlapa" transform="translate(-215.000000, -662.000000)">
            <g id="Products" transform="translate(210.000000, 660.000000)">
                <g id="ic_titleIcon_new" transform="translate(5.000000, 2.000000)">
                    <circle id="icon-base" fill="#FF8E00" cx="15" cy="15" r="15"></circle>
                    <path d="M14.0147298,10.5799826 C14.4182407,9.80667248 15.583936,9.80667248 15.9874469,10.5799826 L17.0913345,12.6955322 L19.5600892,13.0368852 C20.4619775,13.1615887 20.8214321,14.2103068 20.1684922,14.8119163 L18.3829954,16.4570476 L18.8043826,18.7812303 C18.9585099,19.6313275 18.0152248,20.2795571 17.2082483,19.8781008 L15.0010883,18.7800784 L12.7939284,19.8781008 C11.9869518,20.2795571 11.0436668,19.6313275 11.1977941,18.7812303 L11.6191813,16.4570476 L9.83368449,14.8119163 C9.18074452,14.2103068 9.5401992,13.1615887 10.4420875,13.0368852 L12.9108422,12.6955322 L14.0147298,10.5799826 Z" id="icon" fill="#FFFFFF" fill-rule="nonzero"></path>
                </g>
            </g>
        </g>
    </g>
</svg>