<?xml version="1.0" encoding="UTF-8"?>
<svg width="30px" height="30px" viewBox="0 0 30 30" version="1.1" xmlns="http://www.w3.org/2000/svg" xmlns:xlink="http://www.w3.org/1999/xlink">
    <title>6B95B005-084D-4981-832B-DE8986373BF9</title>
    <g id="Page-1" stroke="none" stroke-width="1" fill="none" fill-rule="evenodd">
        <g id="SÄkumlapa" transform="translate(-215.000000, -1616.000000)">
            <g id="Products" transform="translate(210.000000, 660.000000)">
                <g id="Products-/-Popular" transform="translate(3.000000, 954.000000)">
                    <g id="ic_titleIcon_popular" transform="translate(2.000000, 2.000000)">
                        <circle id="icon-base" fill="#4AA3A5" cx="15" cy="15" r="15"></circle>
                        <path d="M18.977205,15.8548596 C18.8550175,14.3634735 18.1143512,13.428884 17.4609348,12.6041578 C16.8558934,11.8406425 16.3333311,11.1813069 16.3333311,10.2086901 C16.3333311,10.1305651 16.2866644,10.0591589 16.2126645,10.0233581 C16.1384353,9.98734252 16.0492479,9.99324095 15.9817687,10.0392175 C15.0004358,10.6975375 14.1816445,11.8070878 13.8956238,12.8657593 C13.6970614,13.6028097 13.6707905,14.4314031 13.667103,14.978649 C12.7608534,14.7971842 12.5555618,13.5263254 12.5533952,13.5124777 C12.5431868,13.4465598 12.5002285,13.3891966 12.4377286,13.3578684 C12.3745828,13.3269505 12.3003536,13.3247044 12.2363328,13.3544114 C12.188812,13.3759739 11.069875,13.9089815 11.0047708,16.0371251 C11.0002083,16.1079259 11,16.1789415 11,16.2499375 C11,18.3174562 12.7944784,19.999682 15,19.999682 C15.00304,19.9998774 15.00629,20.0002875 15.0088941,19.999682 C15.0097691,19.999682 15.0106233,19.999682 15.0117066,19.999682 C17.2118099,19.9937641 19,18.3138038 19,16.2499375 C19,16.1459727 18.977205,15.8548596 18.977205,15.8548596 Z" id="icon" fill="#FFFFFF" fill-rule="nonzero"></path>
                    </g>
                </g>
            </g>
        </g>
    </g>
</svg>