<?xml version="1.0" encoding="UTF-8"?>
<svg width="22px" height="22px" viewBox="0 0 22 22" version="1.1" xmlns="http://www.w3.org/2000/svg" xmlns:xlink="http://www.w3.org/1999/xlink">
    <title>D4BE30EA-E3EC-45BE-8E29-5DB0EC16F69B</title>
    <g id="Page-1" stroke="none" stroke-width="1" fill="none" fill-rule="evenodd">
        <g id="SÄkumlapa" transform="translate(-1273.000000, -69.000000)">
            <g id="2nd-Top-bar" transform="translate(0.000000, 40.000000)">
                <g id="Cart" transform="translate(1273.000000, 23.000000)">
                    <g id="ic-cart" transform="translate(0.000000, 6.000000)">
                        <rect id="icon-space" x="0" y="0" width="22" height="22"></rect>
                        <path d="M10,18 C11.1045695,18 12,18.8954305 12,20 C12,21.1045695 11.1045695,22 10,22 C8.8954305,22 8,21.1045695 8,20 C8,18.8954305 8.8954305,18 10,18 Z M16,18 C17.1045695,18 18,18.8954305 18,20 C18,21.1045695 17.1045695,22 16,22 C14.8954305,22 14,21.1045695 14,20 C14,18.8954305 14.8954305,18 16,18 Z M1,0 L4,0 C4.43224297,0 4.81064595,0.276787608 4.94681326,0.678060781 L4.97780241,0.790470911 L5.88133729,5.00696698 L5.94020469,5.00175823 L21,5 C21.5997637,5 22.0549227,5.52067883 21.9951229,6.10034708 L21.9761871,6.21693046 L20.324218,13.6507914 C20.0324549,14.9637252 18.9058923,15.91433 17.5779312,15.9945094 L17.3956568,16 L8.61683158,16 C7.26372316,16 6.08648524,15.095862 5.7272766,13.8067174 L5.68342434,13.6285873 L3.19158421,2 L1,2 C0.44771525,2 0,1.55228475 0,1 C0,0.487164161 0.38604019,0.0644928393 0.883378875,0.00672773133 L1,0 Z M19.7533839,7 L6.30841579,7 L7.63902917,13.2095291 C7.72959664,13.6321773 8.07952666,13.9441856 8.50042355,13.9932519 L8.61683158,14 L17.3956568,14 C17.8252972,14 18.2020966,13.7264627 18.3402285,13.3284527 L18.3718438,13.2169305 L19.7533839,7 Z" id="icon" fill="#FF8E00"></path>
                    </g>
                </g>
            </g>
        </g>
    </g>
</svg>