<?xml version="1.0" encoding="UTF-8"?>
<svg width="22px" height="22px" viewBox="0 0 22 22" version="1.1" xmlns="http://www.w3.org/2000/svg" xmlns:xlink="http://www.w3.org/1999/xlink">
    <title>0484AA9C-48EF-45F3-A87B-87D5A6B4BC26</title>
    <g id="Page-1" stroke="none" stroke-width="1" fill="none" fill-rule="evenodd">
        <g id="SÄkumlapa" transform="translate(-872.000000, -69.000000)">
            <g id="2nd-Top-bar" transform="translate(0.000000, 40.000000)">
                <g id="Call-us" transform="translate(872.000000, 23.000000)">
                    <g id="ic-call-us" transform="translate(0.000000, 6.000000)">
                        <rect id="icon-space" x="3.81173436e-06" y="7.43525133e-05" width="22" height="22"></rect>
                        <path d="M5.77589167,0.955539368 C7.23851295,0.941454641 8.48576637,2.01208523 8.69196242,3.46844357 C8.80330439,4.31103428 9.00979385,5.13835759 9.30664808,5.93237757 C9.70753361,6.99681126 9.45111707,8.19682185 8.64638104,9.00903675 L7.98555329,9.66860141 C9.09976086,11.403365 10.5769205,12.8773327 12.3154613,13.9890754 L12.9823836,13.3234399 C13.7914853,12.5248719 14.9916971,12.2693918 16.0541471,12.6680052 C16.8522833,12.9652619 17.6815634,13.1714492 18.5350836,13.2838456 C19.9959247,13.4895406 21.072292,14.7527928 21.0425219,16.225201 L21.0425137,19.0769391 C21.0458491,19.8971004 20.7026543,20.6805222 20.0974764,21.23467 C19.4927217,21.7884304 18.6823689,22.0619607 17.8473932,21.98648 C14.7458142,21.6501123 11.7664852,20.5922841 9.15655221,18.9029362 C6.71916336,17.3570783 4.65261829,15.2944832 3.10844685,12.8689802 C1.40465706,10.2439585 0.344325565,7.25519547 0.011855939,4.12921838 C-0.0618754005,3.31486949 0.210681697,2.5071734 0.76274492,1.90355657 C1.31437414,1.30041428 2.0942812,0.956544376 2.91317114,0.955539368 L5.77589167,0.955539368 Z M5.78561677,2.9555871 L2.91428586,2.9555871 C2.65693251,2.95591842 2.41171158,3.06403912 2.23857729,3.2533413 C2.06583866,3.44221087 1.98068283,3.69456178 2.00216968,3.93324744 C2.29981229,6.73072733 3.25351531,9.41893605 4.79080037,11.7874953 C6.18199792,13.9726504 8.03824074,15.8253452 10.2355113,17.2189641 C12.5909597,18.7435443 15.271947,19.6954445 18.045049,19.996353 C18.3020881,20.0195385 18.5569221,19.9335206 18.7468201,19.7596353 C18.9362949,19.5861374 19.043572,19.3412525 19.0425296,19.0810058 L19.0425296,16.2140505 L19.0385614,16.0751645 C18.9972223,15.663087 18.6788575,15.3238154 18.2651413,15.2655242 C17.2712503,15.1346906 16.2953699,14.8920534 15.3538576,14.5413949 C15.0189618,14.4157486 14.6413751,14.4961226 14.3912723,14.7429474 L13.1752703,15.9566251 C12.8571203,16.2741671 12.3661926,16.340408 11.9752602,16.1185426 C9.42165643,14.6692987 7.30721368,12.5588975 5.85506135,10.0099409 C5.63189962,9.61822614 5.69843397,9.12562386 6.01751897,8.80714875 L7.22957161,7.59743492 C7.48012888,7.34454215 7.56020965,6.96977005 7.43414002,6.63502095 C7.08352981,5.69722537 6.84033514,4.72283846 6.71045935,3.73966149 C6.64634844,3.28694328 6.25511631,2.95111331 5.78561677,2.9555871 Z M13.5791641,3.84111888 C15.8915969,4.29142248 17.7001063,6.09647517 18.1515011,8.40565887 C18.2574553,8.94768484 17.9039493,9.47297656 17.3619234,9.57893076 C16.8198974,9.68488496 16.2946057,9.33137895 16.1886515,8.78935298 C15.8935615,7.27977232 14.7105263,6.09899833 13.1968817,5.80424399 C12.6547797,5.69867962 12.300896,5.17364228 12.4064603,4.63154025 C12.5120247,4.08943822 13.037062,3.73555452 13.5791641,3.84111888 Z M13.3815749,0 L13.4982271,0.00616539194 C17.9641656,0.501346989 21.4918089,4.01781885 21.9937261,8.47607464 C22.0555129,9.02489232 21.6606963,9.51988499 21.1118786,9.58167172 C20.5630609,9.64345845 20.0680682,9.24864185 20.0062815,8.69982417 C19.6089806,5.17081782 16.8155637,2.38624717 13.2778186,1.99398331 C12.7288979,1.93311918 12.3332498,1.43879086 12.3941139,0.889870096 C12.4462832,0.419366586 12.8169159,0.0614715824 13.2674224,0.00714641125 L13.3815749,0 Z" id="icon" fill="#FF8E00"></path>
                    </g>
                </g>
            </g>
        </g>
    </g>
</svg>