<?xml version="1.0" encoding="UTF-8"?>
<svg width="44px" height="44px" viewBox="0 0 44 44" version="1.1" xmlns="http://www.w3.org/2000/svg" xmlns:xlink="http://www.w3.org/1999/xlink">
    <title>E9EED182-45FB-45E3-933F-B9695C1883C7</title>
    <g id="Page-1" stroke="none" stroke-width="1" fill="none" fill-rule="evenodd">
        <g id="SÄkumlapa" transform="translate(-218.000000, -2214.000000)" fill-rule="nonzero">
            <g id="Footer" transform="translate(0.000000, 2162.000000)">
                <g id="Icon" transform="translate(218.000000, 52.000000)">
                    <g transform="translate(3.000000, 1.000000)" id="icon">
                        <path d="M30.500031,26 C34.6421612,26 38,29.357883 38,33.500031 C38,35.2106368 37.4273237,36.787479 36.4632317,38.0492971 L38.7071068,40.2928932 C39.0976311,40.6834175 39.0976311,41.3165825 38.7071068,41.7071068 C38.3466228,42.0675907 37.7793918,42.0953203 37.3871006,41.7902954 L37.2928932,41.7071068 L35.0492971,39.4632317 C33.787479,40.4273237 32.2106368,41 30.500031,41 C26.357883,41 23,37.6421612 23,33.500031 C23,29.3578919 26.3578919,26 30.500031,26 Z M25.5599976,0 L26.1975048,0.00535313352 L26.8106381,0.0216893549 L27.3997944,0.0494238953 C27.5922277,0.0606145987 27.7807311,0.0737742272 27.9653706,0.0889719859 L28.5077637,0.140748858 C33.020701,0.634001079 35.0641785,2.49754817 35.7350882,6.87890747 L35.8077524,7.40604691 C35.829907,7.58567826 35.850017,7.76925089 35.8681485,7.95683399 L35.9166735,8.53168395 L35.9366083,8.82826226 L35.9366083,8.82826226 L35.9680708,9.43998508 L35.9886543,10.0768088 L35.9987559,10.7391488 L36,11.0800171 L36,19.5999756 C36,20.1522603 35.5522847,20.5999756 35,20.5999756 C34.4871642,20.5999756 34.0644928,20.2139354 34.0067277,19.7165967 L34,19.5999756 L33.9990987,10.7610638 L33.9850085,9.84732521 L33.9850085,9.84732521 L33.959156,9.13413402 L33.959156,9.13413402 L33.9192856,8.46352423 L33.8991624,8.20693239 L33.8991624,8.20693239 L33.8513663,7.71329824 L33.7930278,7.2452145 C33.3251597,3.90477254 31.9607848,2.5754794 28.6861088,2.15916998 L28.2276261,2.10795637 L27.7448908,2.06744194 L27.106496,2.03090192 L27.106496,2.03090192 L26.4281981,2.0089039 L25.8560798,2.00096354 L10.1439202,2.00096354 L9.85033796,2.00396414 L9.28358859,2.01640039 C9.09915909,2.0220297 8.91918339,2.02917881 8.74356203,2.03795547 L8.22966145,2.06927588 C8.14615536,2.07534565 8.06371299,2.08184923 7.98232189,2.08880012 L7.50649122,2.13598072 C4.10812004,2.52291411 2.69688308,3.82796244 2.21359887,7.19845525 L2.15334878,7.670978 L2.12735105,7.91704317 L2.12735105,7.91704317 L2.08323721,8.42918514 C2.07673578,8.51679259 2.07065148,8.60553424 2.0649719,8.69542357 L2.03565144,9.24863939 L2.0154472,9.83004592 L2.00376233,10.4402897 L2.00092815,10.7564275 L2.00092815,10.7564275 L2,33.5999756 C2,33.9166186 2.00929738,34.2146487 2.02763157,34.4939636 L2.06187788,34.8988868 C2.39637451,38.0909207 4.06740521,38.4668367 6.59595962,35.8386434 L6.75183646,35.6739785 C8.76163145,33.5422021 11.8777869,33.653319 13.6961447,35.8760725 L13.8406877,36.0609206 L15.8607073,38.7609328 C16.1915549,39.2031525 16.1012699,39.8298475 15.6590501,40.1606951 C15.2508473,40.4660928 14.6854585,40.4126558 14.3406704,40.0548098 L14.2592879,39.9590379 L12.2389674,37.2586232 C11.2276352,35.9054322 9.54631732,35.7672965 8.3222361,36.9313135 L8.18816598,37.0660118 C4.07803742,41.4774592 0.11324998,39.8568606 0.00238116637,33.8596726 L0,33.5999756 L0,11.0800171 L0.00785310919,10.2399855 L0.00785310919,10.2399855 L0.0319292497,9.43998508 L0.063391692,8.82826226 L0.0833265284,8.53168395 L0.0833265284,8.53168395 L0.131851502,7.95683399 C0.149982969,7.76925089 0.170092963,7.58567826 0.192247637,7.40604691 L0.264911845,6.87890747 C0.935821511,2.49754817 2.97929901,0.634001079 7.49223631,0.140748858 L8.03462939,0.0889719859 C8.21926889,0.0737742272 8.40777226,0.0606145987 8.60020563,0.0494238953 L9.18936194,0.0216893549 L9.80249524,0.00535313352 L10.4400024,0 L25.5599976,0 Z M30.500031,28 C27.4624614,28 25,30.4624614 25,33.500031 C25,36.5375858 27.4624466,39 30.500031,39 C33.5376006,39 36,36.5376006 36,33.500031 C36,30.4624466 33.5375858,28 30.500031,28 Z" fill="#3D454D"></path>
                        <path d="M24,18 C24.5522847,18 25,18.4477153 25,19 C25,19.5128358 24.6139598,19.9355072 24.1166211,19.9932723 L24,20 L12,20 C11.4477153,20 11,19.5522847 11,19 C11,18.4871642 11.3860402,18.0644928 11.8833789,18.0067277 L12,18 L24,18 Z M26,10 C26.5522847,10 27,10.4477153 27,11 C27,11.5128358 26.6139598,11.9355072 26.1166211,11.9932723 L26,12 L10,12 C9.44771525,12 9,11.5522847 9,11 C9,10.4871642 9.38604019,10.0644928 9.88337887,10.0067277 L10,10 L26,10 Z" fill="#FF8E00"></path>
                    </g>
                </g>
            </g>
        </g>
    </g>
</svg>