<?xml version="1.0" encoding="UTF-8"?>
<svg width="22px" height="22px" viewBox="0 0 22 22" version="1.1" xmlns="http://www.w3.org/2000/svg" xmlns:xlink="http://www.w3.org/1999/xlink">
    <title>3837BEF6-DDB1-44DC-A09A-C74DE9E22E97</title>
    <g id="Page-1" stroke="none" stroke-width="1" fill="none" fill-rule="evenodd">
        <g id="SÄkumlapa" transform="translate(-1061.000000, -69.000000)">
            <g id="2nd-Top-bar" transform="translate(0.000000, 40.000000)">
                <g id="Client" transform="translate(1061.000000, 23.000000)">
                    <g id="ic-user" transform="translate(0.000000, 6.000000)">
                        <rect id="icon-space" x="0" y="0" width="22" height="22"></rect>
                        <path d="M7,13 L15,13 C17.6887547,13 19.8818181,15.1223067 19.9953805,17.7831104 L20,18 L20,21 C20,21.5522847 19.5522847,22 19,22 C18.4871642,22 18.0644928,21.6139598 18.0067277,21.1166211 L18,21 L18,18 C18,16.4023191 16.75108,15.0963391 15.1762728,15.0050927 L15,15 L7,15 C5.40231912,15 4.09633912,16.24892 4.00509269,17.8237272 L4,18 L4,21 C4,21.5522847 3.55228475,22 3,22 C2.48716416,22 2.06449284,21.6139598 2.00672773,21.1166211 L2,21 L2,18 C2,15.3112453 4.12230671,13.1181819 6.78311038,13.0046195 L7,13 L15,13 L7,13 Z M11,0 C13.7614237,0 16,2.23857625 16,5 C16,7.76142375 13.7614237,10 11,10 C8.23857625,10 6,7.76142375 6,5 C6,2.23857625 8.23857625,0 11,0 Z M11,2 C9.34314575,2 8,3.34314575 8,5 C8,6.65685425 9.34314575,8 11,8 C12.6568542,8 14,6.65685425 14,5 C14,3.34314575 12.6568542,2 11,2 Z" id="icon" fill="#FF8E00"></path>
                    </g>
                </g>
            </g>
        </g>
    </g>
</svg>