<?xml version="1.0" encoding="UTF-8"?>
<svg width="11px" height="10px" viewBox="0 0 11 10" version="1.1" xmlns="http://www.w3.org/2000/svg" xmlns:xlink="http://www.w3.org/1999/xlink">
    <title>145C1AD3-BF2F-4AD5-8E57-9D0BFD87F1CB</title>
    <g id="Page-1" stroke="none" stroke-width="1" fill="none" fill-rule="evenodd">
        <g id="SÄkumlapa" transform="translate(-225.000000, -1213.000000)" fill="#FFFFFF" fill-rule="nonzero">
            <g id="Products" transform="translate(210.000000, 660.000000)">
                <g id="Products-/-Discounts" transform="translate(3.000000, 472.000000)">
                    <g id="Product-blocks" transform="translate(0.000000, 63.000000)">
                        <g id="Product-Label-/-Akcija" transform="translate(0.000000, 10.000000)">
                            <path d="M14,12.0000137 C12.8954305,12.0000137 12,11.1045832 12,10.0000137 C12,8.8954442 12.8954305,8.0000137 14,8.0000137 C15.1045695,8.0000137 16,8.8954442 16,10.0000137 C16,11.1045832 15.1045695,12.0000137 14,12.0000137 Z M21,18.0000137 C19.8954305,18.0000137 19,17.1045832 19,16.0000137 C19,14.8954442 19.8954305,14.0000137 21,14.0000137 C22.1045695,14.0000137 23,14.8954442 23,16.0000137 C23,17.1045832 22.1045695,18.0000137 21,18.0000137 Z M14.7525767,17.6585183 C14.3888946,18.0741549 13.757132,18.1162724 13.3414954,17.7525904 C12.9258588,17.3889083 12.8837413,16.7571457 13.2474233,16.3415091 L20.2474233,8.34150909 C20.6111054,7.92587246 21.242868,7.88375495 21.6585046,8.24743701 C22.0741412,8.61111906 22.1162587,9.24288168 21.7525767,9.65851831 L14.7525767,17.6585183 Z" id="ic_discount"></path>
                        </g>
                    </g>
                </g>
            </g>
        </g>
    </g>
</svg>