<?xml version="1.0" encoding="UTF-8"?>
<svg width="8px" height="10px" viewBox="0 0 8 10" version="1.1" xmlns="http://www.w3.org/2000/svg" xmlns:xlink="http://www.w3.org/1999/xlink">
    <title>59888315-FE72-4A22-8046-AF0AFE34E750</title>
    <g id="Page-1" stroke="none" stroke-width="1" fill="none" fill-rule="evenodd">
        <g id="Sākumlapa" transform="translate(-226.000000, -1279.000000)" fill="#FFFFFF" fill-rule="nonzero">
            <g id="Products" transform="translate(210.000000, 660.000000)">
                <g id="Products-/-Discounts" transform="translate(3.000000, 472.000000)">
                    <g id="Product-blocks" transform="translate(0.000000, 63.000000)">
                        <g id="Product-Label" transform="translate(0.000000, 10.000000)">
                            <g id="Product-Label-/-Populārs" transform="translate(0.000000, 66.000000)">
                                <path d="M20.977205,13.8548596 C20.8550175,12.3634735 20.1143512,11.428884 19.4609348,10.6041578 C18.8558934,9.84064252 18.3333311,9.18130686 18.3333311,8.20869008 C18.3333311,8.13056511 18.2866644,8.05915889 18.2126645,8.02335813 C18.1384353,7.98734252 18.0492479,7.99324095 17.9817687,8.0392175 C17.0004358,8.69753753 16.1816445,9.80708784 15.8956238,10.8657593 C15.6970614,11.6028097 15.6707905,12.4314031 15.667103,12.978649 C14.7608534,12.7971842 14.5555618,11.5263254 14.5533952,11.5124777 C14.5431868,11.4465598 14.5002285,11.3891966 14.4377286,11.3578684 C14.3745828,11.3269505 14.3003536,11.3247044 14.2363328,11.3544114 C14.188812,11.3759739 13.069875,11.9089815 13.0047708,14.0371251 C13.0002083,14.1079259 13,14.1789415 13,14.2499375 C13,16.3174562 14.7944784,17.999682 17,17.999682 C17.00304,17.9998774 17.00629,18.0002875 17.0088941,17.999682 C17.0097691,17.999682 17.0106233,17.999682 17.0117066,17.999682 C19.2118099,17.9937641 21,16.3138038 21,14.2499375 C21,14.1459727 20.977205,13.8548596 20.977205,13.8548596 Z" id="ic_popular"></path>
                            </g>
                        </g>
                    </g>
                </g>
            </g>
        </g>
    </g>
</svg>