<?xml version="1.0" encoding="UTF-8"?>
<svg width="11px" height="10px" viewBox="0 0 11 10" version="1.1" xmlns="http://www.w3.org/2000/svg" xmlns:xlink="http://www.w3.org/1999/xlink">
    <title>7C9367C9-6562-4CEA-9581-CAA012238F7D</title>
    <g id="Page-1" stroke="none" stroke-width="1" fill="none" fill-rule="evenodd">
        <g id="SÄkumlapa" transform="translate(-224.000000, -1246.000000)" fill="#FFFFFF" fill-rule="nonzero">
            <g id="Products" transform="translate(210.000000, 660.000000)">
                <g id="Products-/-Discounts" transform="translate(3.000000, 472.000000)">
                    <g id="Product-blocks" transform="translate(0.000000, 63.000000)">
                        <g id="Product-Label" transform="translate(0.000000, 10.000000)">
                            <g id="Product-Label-/-Jauna-prece" transform="translate(0.000000, 33.000000)">
                                <path d="M15.5147298,8.57998257 C15.9182407,7.80667248 17.083936,7.80667248 17.4874469,8.57998257 L18.5913345,10.6955322 L21.0600892,11.0368852 C21.9619775,11.1615887 22.3214321,12.2103068 21.6684922,12.8119163 L19.8829954,14.4570476 L20.3043826,16.7812303 C20.4585099,17.6313275 19.5152248,18.2795571 18.7082483,17.8781008 L16.5010883,16.7800784 L14.2939284,17.8781008 C13.4869518,18.2795571 12.5436668,17.6313275 12.6977941,16.7812303 L13.1191813,14.4570476 L11.3336845,12.8119163 C10.6807445,12.2103068 11.0401992,11.1615887 11.9420875,11.0368852 L14.4108422,10.6955322 L15.5147298,8.57998257 Z" id="ic_star_small"></path>
                            </g>
                        </g>
                    </g>
                </g>
            </g>
        </g>
    </g>
</svg>