<?xml version="1.0" encoding="UTF-8"?>
<svg width="6px" height="4px" viewBox="0 0 6 4" version="1.1" xmlns="http://www.w3.org/2000/svg" xmlns:xlink="http://www.w3.org/1999/xlink">
    <title>44D6ADCB-9878-4C1D-A93F-346E58F166A0</title>
    <g id="Page-1" stroke="none" stroke-width="1" fill="none" fill-rule="evenodd">
        <g id="SÄkumlapa" transform="translate(-529.000000, -143.000000)" fill="#FFFFFF" fill-rule="nonzero">
            <g id="Navigation" transform="translate(0.000000, 120.000000)">
                <g id="Navigation-links" transform="translate(285.000000, 18.000000)">
                    <g id="Group-4" transform="translate(109.000000, 0.000000)">
                        <path d="M137.292893,5.29289322 C137.653377,4.93240926 138.220608,4.90467972 138.612899,5.20970461 L138.707107,5.29289322 L140.707107,7.29289322 C141.097631,7.68341751 141.097631,8.31658249 140.707107,8.70710678 C140.346623,9.06759074 139.779392,9.09532028 139.387101,8.79029539 L139.292893,8.70710678 L138,7.415 L136.707107,8.70710678 C136.346623,9.06759074 135.779392,9.09532028 135.387101,8.79029539 L135.292893,8.70710678 C134.932409,8.34662282 134.90468,7.77939176 135.209705,7.38710056 L135.292893,7.29289322 L137.292893,5.29289322 Z" id="ic-category-arrow-down" transform="translate(138.000000, 7.000000) scale(1, -1) translate(-138.000000, -7.000000) "></path>
                    </g>
                </g>
            </g>
        </g>
    </g>
</svg>