<?xml version="1.0" encoding="UTF-8"?>
<svg width="16px" height="16px" viewBox="0 0 16 16" version="1.1" xmlns="http://www.w3.org/2000/svg" xmlns:xlink="http://www.w3.org/1999/xlink">
    <title>3A33AA13-0567-47BC-AC89-AD1FD069BD7C</title>
    <g id="Page-1" stroke="none" stroke-width="1" fill="none" fill-rule="evenodd" opacity="0.5">
        <g id="SÄkumlapa" transform="translate(-427.000000, -72.000000)" fill="#737980" fill-rule="nonzero">
            <g id="2nd-Top-bar" transform="translate(0.000000, 40.000000)">
                <g id="Input" transform="translate(413.000000, 20.000000)">
                    <path d="M21.5,12 C25.6421356,12 29,15.3578644 29,19.5 C29,21.2106044 28.4273178,22.7874516 27.4632192,24.0492761 L29.7071068,26.2928932 C30.0976311,26.6834175 30.0976311,27.3165825 29.7071068,27.7071068 C29.3466228,28.0675907 28.7793918,28.0953203 28.3871006,27.7902954 L28.2928932,27.7071068 L26.0492761,25.4632192 C24.7874516,26.4273178 23.2106044,27 21.5,27 C17.3578644,27 14,23.6421356 14,19.5 C14,15.3578644 17.3578644,12 21.5,12 Z M21.5,14 C18.4624339,14 16,16.4624339 16,19.5 C16,22.5375661 18.4624339,25 21.5,25 C24.5375661,25 27,22.5375661 27,19.5 C27,16.4624339 24.5375661,14 21.5,14 Z" id="ic-search"></path>
                </g>
            </g>
        </g>
    </g>
</svg>