<?xml version="1.0" encoding="UTF-8"?>
<svg width="4px" height="6px" viewBox="0 0 4 6" version="1.1" xmlns="http://www.w3.org/2000/svg" xmlns:xlink="http://www.w3.org/1999/xlink">
    <title>303EC3CE-C7BA-407E-8F0F-9CEE1A615D52</title>
    <g id="Page-1" stroke="none" stroke-width="1" fill="none" fill-rule="evenodd">
        <g id="SÄkumlapa---Dropdown" transform="translate(-215.000000, -223.000000)">
            <g id="Dropdown" transform="translate(0.000000, 170.000000)">
                <g id="Catalog-list" transform="translate(215.000000, 47.000000)">
                    <g id="Icons" transform="translate(0.000000, 6.000000)">
                        <g id="Icon" transform="translate(2.000000, 3.000000) rotate(-90.000000) translate(-2.000000, -3.000000) translate(-1.000000, 1.000000)">
                            <rect id="icon-space" x="0" y="0" width="6" height="4"></rect>
                            <path d="M1.53033009,0.469669914 C1.23743687,0.176776695 0.762563133,0.176776695 0.469669914,0.469669914 C0.176776695,0.762563133 0.176776695,1.23743687 0.469669914,1.53033009 L2.46966991,3.53033009 C2.76256313,3.8232233 3.23743687,3.8232233 3.53033009,3.53033009 L5.53033009,1.53033009 C5.8232233,1.23743687 5.8232233,0.762563133 5.53033009,0.469669914 C5.23743687,0.176776695 4.76256313,0.176776695 4.46966991,0.469669914 L3,1.93933983 L1.53033009,0.469669914 Z" id="icon" fill="#4D4D4D" fill-rule="nonzero"></path>
                        </g>
                    </g>
                </g>
            </g>
        </g>
    </g>
</svg>