<?xml version="1.0" encoding="UTF-8"?>
<svg width="59px" height="18px" viewBox="0 0 59 18" version="1.1" xmlns="http://www.w3.org/2000/svg" xmlns:xlink="http://www.w3.org/1999/xlink">
    <title>DBC36150-23AB-4C74-B090-31300AE88388</title>
    <g id="Page-1" stroke="none" stroke-width="1" fill="none" fill-rule="evenodd">
        <g id="SÄkumlapa" transform="translate(-620.000000, -2674.000000)" fill="#3D454D">
            <g id="Footer" transform="translate(0.000000, 2162.000000)">
                <g transform="translate(0.000000, 148.000000)" id="Footer-bottom">
                    <g transform="translate(215.000000, 333.000000)">
                        <g id="Developed-by" transform="translate(294.000000, 27.000000)">
                            <g id="developedby_Datateks" transform="translate(111.000000, 4.000000)">
                                <g id="projects" transform="translate(0.000000, 16.000000)" opacity="0">
                                    <rect id="dot-4" x="28" y="0" width="2" height="2"></rect>
                                    <rect id="dot-3" x="18.6666667" y="0" width="2" height="2"></rect>
                                    <rect id="dot-2" x="9.33333333" y="0" width="2" height="2"></rect>
                                    <rect id="dot" x="0" y="0" width="2" height="2"></rect>
                                </g>
                                <g id="datateks" transform="translate(0.000000, 0.000000)" fill-rule="nonzero">
                                    <path d="M42.6907679,5.02222222 C42.2924278,4.48888889 41.8055677,4.17777778 41.2301876,4 C40.6105475,3.82222222 39.9909074,3.82222222 39.3712672,3.91111111 C38.6631071,4.04444444 38.043467,4.35555556 37.5566069,4.88888889 C37.2025268,5.28888889 36.9369668,5.77777778 36.7599267,6.31111111 C36.6271467,6.75555556 36.5828867,7.15555556 36.5386267,7.6 C36.4943667,8.17777778 36.5386267,8.75555556 36.6714067,9.33333333 C36.8041867,9.82222222 36.9812268,10.3111111 37.2910468,10.7111111 C37.5566069,11.1111111 37.954947,11.3777778 38.353287,11.6 C38.8844072,11.8666667 39.4155273,11.9555556 39.9909074,12 L40.5662875,12 C40.8761075,11.9555556 41.1859276,11.9555556 41.4514877,11.8666667 C42.0268678,11.7333333 42.5579879,11.5555556 43.044848,11.3333333 C43.089108,11.2888889 43.089108,11.2888889 43.089108,11.2 L43.089108,9.68888889 L43.089108,9.6 C43.044848,9.64444444 43.044848,9.64444444 43.000588,9.64444444 C42.7350279,9.77777778 42.4694679,9.95555556 42.1596478,10.0888889 C41.5400077,10.4 40.8761075,10.5333333 40.1679474,10.4444444 C39.5483073,10.3555556 39.1499672,10.0444444 38.9286672,9.46666667 C38.7958871,9.11111111 38.7516271,8.75555556 38.7073671,8.4 L38.7073671,8.13333333 L43.3989281,8.13333333 L43.3989281,8.08888889 C43.3989281,7.6 43.3989281,7.06666667 43.310408,6.57777778 C43.221888,6.04444444 43.044848,5.46666667 42.6907679,5.02222222 L42.6907679,5.02222222 Z M38.7958871,6.97777778 C38.8401471,6.44444444 38.9729272,6 39.3712672,5.6 C39.8138673,5.15555556 40.6990675,5.15555556 41.0974076,5.82222222 C41.2301876,6.08888889 41.3187076,6.35555556 41.3629676,6.66666667 C41.3629676,6.75555556 41.3629676,6.88888889 41.4072277,6.97777778 L38.7958871,6.97777778 Z M58.270291,9.11111111 C58.226031,8.66666667 58.048991,8.26666667 57.6949109,7.95555556 C57.4293509,7.68888889 57.1195308,7.51111111 56.7654507,7.37777778 C56.3228506,7.2 55.8359905,7.06666667 55.3933905,6.93333333 C55.0835704,6.84444444 54.8180103,6.75555556 54.5524503,6.53333333 C54.3754103,6.4 54.2426302,6.22222222 54.2426302,5.95555556 C54.2426302,5.68888889 54.4196703,5.51111111 54.6852303,5.46666667 C55.1720904,5.33333333 55.6146905,5.33333333 56.1015506,5.42222222 C56.6326707,5.55555556 57.0752708,5.73333333 57.5621309,6 C57.6063909,6 57.6063909,6.04444444 57.6506509,6.04444444 L57.6506509,4.4 C57.6506509,4.35555556 57.6063909,4.35555556 57.6063909,4.31111111 C57.0752708,4.08888889 56.4998907,3.91111111 55.9245106,3.86666667 C55.3933905,3.82222222 54.8622704,3.82222222 54.3311502,3.91111111 C53.7557701,4 53.26891,4.17777778 52.7820499,4.53333333 C52.5164899,4.71111111 52.3394498,4.97777778 52.2066698,5.28888889 C52.0296298,5.68888889 51.9853698,6.13333333 52.0296298,6.57777778 C52.0738898,6.93333333 52.2066698,7.24444444 52.4279699,7.51111111 C52.6935299,7.82222222 53.00335,8.04444444 53.3574301,8.17777778 C53.8000301,8.4 54.2868902,8.48888889 54.7294903,8.66666667 C55.0393104,8.75555556 55.3048704,8.84444444 55.5704305,9.02222222 C55.9245106,9.24444444 56.0572906,9.6 55.8802506,9.95555556 C55.7474705,10.2222222 55.5261705,10.3111111 55.3048704,10.4 C54.9065304,10.5333333 54.4639303,10.5333333 54.0655902,10.4444444 C53.5344701,10.3111111 53.09187,10.1333333 52.6050099,9.91111111 C52.4279699,9.82222222 52.2951898,9.77777778 52.1181498,9.68888889 L52.1181498,11.2888889 C52.1181498,11.3333333 52.1624098,11.3333333 52.1624098,11.3777778 C52.87057,11.6888889 53.5787301,11.8666667 54.3311502,11.9555556 C54.4639303,11.9555556 54.5967103,11.9555556 54.6852303,12 L55.1278304,12 C55.3048704,12 55.4376505,11.9555556 55.6146905,11.9555556 C56.1900706,11.8666667 56.7211907,11.7333333 57.2080508,11.4222222 C57.5621309,11.2 57.871951,10.8888889 58.048991,10.4888889 C58.270291,10 58.314551,9.55555556 58.270291,9.11111111 L58.270291,9.11111111 Z M34.1043262,5.73333333 L35.9632466,5.73333333 C36.0075066,5.73333333 36.0517666,5.73333333 36.0517666,5.64444444 C36.1845466,5.28888889 36.3173266,4.88888889 36.4501067,4.53333333 C36.4943667,4.4 36.5386267,4.31111111 36.5828867,4.17777778 L34.0158062,4.17777778 L34.0158062,1.82222222 C33.9715462,1.82222222 33.9715462,1.86666667 33.9272862,1.86666667 C33.219126,2.35555556 32.5552259,2.8 31.8470657,3.28888889 C31.7585457,3.33333333 31.7142857,3.37777778 31.7142857,3.46666667 L31.7142857,9.46666667 C31.7142857,9.73333333 31.7142857,9.95555556 31.7585457,10.2222222 C31.8470657,10.6666667 31.9798458,11.0222222 32.2896658,11.3333333 C32.6437459,11.6888889 33.042086,11.8666667 33.4846861,11.9111111 C33.6174661,11.9555556 33.7502461,11.9555556 33.8830261,11.9555556 L34.3698862,11.9555556 C34.5469263,11.9555556 34.7682263,11.9111111 34.9452664,11.9111111 C35.3436064,11.8666667 35.7419465,11.7777778 36.1402866,11.6 C36.1845466,11.6 36.2288066,11.5555556 36.2288066,11.5111111 L36.2288066,10.1777778 L36.2288066,10.0888889 C36.1845466,10.0888889 36.1845466,10.1333333 36.1402866,10.1333333 C35.6976865,10.3555556 35.2108264,10.4444444 34.6797063,10.4 C34.3698862,10.3555556 34.1485862,10.2222222 34.0158062,9.95555556 C33.9272862,9.73333333 33.8830261,9.46666667 33.8830261,9.2 L33.8830261,5.77777778 L34.1043262,5.73333333 Z M51.6755497,4.13333333 C51.6755497,4.08888889 51.6755497,4.08888889 51.6755497,4.13333333 L49.2412492,4.13333333 C49.1969892,4.13333333 49.1969892,4.13333333 49.1527292,4.17777778 C48.8871692,4.53333333 48.5773491,4.88888889 48.311789,5.24444444 C47.8249289,5.82222222 47.3823289,6.4 46.8954688,7.02222222 C46.8512087,7.06666667 46.8069487,7.11111111 46.7184287,7.06666667 L46.7184287,0 C45.9660086,0.177777778 45.2578484,0.355555556 44.5496883,0.533333333 C44.4611683,0.533333333 44.4611683,0.577777778 44.4611683,0.666666667 L44.4611683,11.8222222 L46.7184287,11.8222222 L46.7184287,8.35555556 C46.8069487,8.31111111 46.8069487,8.35555556 46.8512087,8.4 C47.6036289,9.51111111 48.356049,10.6222222 49.0642092,11.7333333 C49.1084692,11.7777778 49.1084692,11.7777778 49.1969892,11.7777778 L51.7640697,11.7777778 C50.7460895,10.3555556 49.6838493,8.93333333 48.6658691,7.51111111 C49.6838493,6.35555556 50.7018295,5.24444444 51.6755497,4.13333333 L51.6755497,4.13333333 Z" id="Shape" opacity="0.699999988"></path>
                                    <path d="M20.2835821,12 C20.1492537,12 20.0149254,11.9559571 19.880597,11.9559571 C19.4328358,11.8678713 18.9850746,11.6916996 18.6716418,11.3833992 C18.358209,11.0750988 18.1791045,10.6787126 18.1343284,10.2823264 C18.0895522,10.0621118 18.0895522,9.79785432 18.0895522,9.53359684 L18.0895522,3.5878035 C18.0895522,3.49971767 18.1343284,3.45567476 18.1791045,3.41163185 C18.8955224,2.9271598 19.5671642,2.48673066 20.2835821,2.00225861 C20.2835821,2.00225861 20.3283582,1.9582157 20.3731343,1.9582157 L20.3731343,4.33653303 L22.9701493,4.33653303 C22.8358209,4.42461886 22.8358209,4.51270469 22.7910448,4.64483343 C22.6567164,4.99717674 22.5223881,5.39356296 22.3880597,5.74590627 C22.3880597,5.78994918 22.3432836,5.83399209 22.2985075,5.83399209 L20.2835821,5.83399209 L20.2835821,9.22529644 C20.2835821,9.48955392 20.2835821,9.75381141 20.4179104,9.97402597 C20.5522388,10.2382835 20.7761194,10.4144551 21.0895522,10.4144551 C21.5820896,10.458498 22.0746269,10.3704122 22.5671642,10.1501976 C22.6119403,10.1501976 22.6119403,10.1061547 22.6567164,10.1061547 L22.6567164,11.515528 C22.6567164,11.5595709 22.6567164,11.6036138 22.5671642,11.6036138 C22.1641791,11.7357425 21.761194,11.8238283 21.358209,11.9119142 C21.1791045,11.9559571 20.9552239,11.9559571 20.7761194,11.9559571 L20.7313433,11.9559571 C20.5970149,12 20.4179104,12 20.2835821,12 L20.2835821,12 Z M0,11.7797854 L0,0.857142857 L4.11940299,0.857142857 C4.88059701,0.857142857 5.59701493,0.945228684 6.31343284,1.20948617 C7.47761194,1.60587239 8.32835821,2.39864483 8.7761194,3.54376059 C9,4.07227555 9.13432836,4.64483343 9.17910448,5.2173913 C9.2238806,5.78994918 9.26865672,6.36250706 9.2238806,6.93506494 C9.17910448,7.68379447 9.04477612,8.432524 8.73134328,9.0931677 C8.32835821,10.0180689 7.65671642,10.7227555 6.71641791,11.2072276 C6.13432836,11.471485 5.55223881,11.6476567 4.92537313,11.7357425 C4.56716418,11.7797854 4.1641791,11.7797854 3.80597015,11.8238283 L0.0895522388,11.8238283 C0.0895522388,11.7797854 0.0447761194,11.7797854 0,11.7797854 Z M2.32835821,2.48673066 L2.32835821,10.2382835 L3.35820896,10.2382835 C3.80597015,10.2382835 4.25373134,10.2382835 4.70149254,10.1501976 C5.50746269,9.97402597 6.08955224,9.53359684 6.44776119,8.78486731 C6.71641791,8.25635234 6.80597015,7.63975155 6.85074627,7.02315076 C6.89552239,6.45059289 6.89552239,5.92207792 6.80597015,5.34952005 C6.76119403,4.90909091 6.67164179,4.42461886 6.49253731,4.02823264 C6.17910448,3.27950311 5.64179104,2.79503106 4.88059701,2.6188594 C4.43283582,2.48673066 4.02985075,2.44268775 3.58208955,2.48673066 L2.32835821,2.48673066 Z M16.5671642,8.432524 L16.5671642,6.27442123 C16.5671642,5.92207792 16.5223881,5.56973461 16.3880597,5.26143422 C16.2089552,4.82100508 15.8955224,4.42461886 15.4477612,4.2484472 C15.0447761,4.07227555 14.5970149,3.98418972 14.1492537,3.94014681 C13.4328358,3.8961039 12.761194,3.94014681 12.0895522,4.07227555 C11.5522388,4.16036138 11.0149254,4.33653303 10.5223881,4.5567476 C10.4776119,4.60079051 10.4328358,4.64483343 10.4328358,4.68887634 L10.4328358,6.27442123 C10.4328358,6.27442123 10.4776119,6.27442123 10.4776119,6.23037832 C11.0597015,5.87803501 11.6865672,5.56973461 12.4029851,5.43760587 C12.8059701,5.39356296 13.2089552,5.34952005 13.5671642,5.43760587 C13.880597,5.5256917 14.1044776,5.70186335 14.238806,6.01016375 C14.3731343,6.36250706 14.3283582,6.71485037 14.3283582,7.11123659 L13.5223881,7.11123659 C13.2537313,7.11123659 12.9402985,7.11123659 12.6716418,7.1552795 C12.1791045,7.19932242 11.7313433,7.33145116 11.238806,7.50762281 C10.3880597,7.85996612 9.89552239,8.47656691 9.76119403,9.4014681 C9.71641791,9.79785432 9.71641791,10.2382835 9.85074627,10.6346697 C10.119403,11.2512705 10.5671642,11.6916996 11.238806,11.8678713 C11.3731343,11.9119142 11.5074627,11.9119142 11.6865672,11.9559571 L12.2238806,11.9559571 C12.4477612,11.9119142 12.7164179,11.9119142 12.9402985,11.8678713 C13.4328358,11.7797854 13.880597,11.515528 14.238806,11.1631846 C14.2835821,11.1191417 14.3283582,11.0750988 14.4179104,11.0310559 C14.4626866,11.2953134 14.4626866,11.515528 14.5074627,11.7797854 L16.6567164,11.7797854 L16.6567164,11.6916996 C16.5671642,10.5906268 16.5671642,9.53359684 16.5671642,8.432524 L16.5671642,8.432524 Z M14.1940299,9.84189723 C13.9253731,10.1061547 13.6567164,10.2823264 13.3432836,10.4144551 C13.0298507,10.5025409 12.7164179,10.5465839 12.4029851,10.458498 C12.0895522,10.3704122 11.9552239,10.1501976 11.9104478,9.84189723 C11.8656716,9.53359684 11.9104478,9.22529644 12.1343284,8.96103896 C12.3134328,8.74082439 12.5373134,8.60869565 12.8059701,8.52060982 C13.119403,8.38848108 13.4776119,8.34443817 13.7910448,8.34443817 L14.3283582,8.34443817 L14.3283582,9.57763975 C14.3283582,9.66572558 14.2835821,9.75381141 14.1940299,9.84189723 L14.1940299,9.84189723 Z M29.9104478,8.432524 L29.9104478,6.27442123 C29.9104478,5.92207792 29.8656716,5.56973461 29.7313433,5.26143422 C29.5522388,4.82100508 29.238806,4.42461886 28.7910448,4.2484472 C28.3880597,4.07227555 27.9402985,3.98418972 27.4925373,3.94014681 C26.7761194,3.8961039 26.1044776,3.94014681 25.4328358,4.07227555 C24.8955224,4.16036138 24.358209,4.33653303 23.8656716,4.5567476 C23.8208955,4.60079051 23.7761194,4.64483343 23.7761194,4.68887634 L23.7761194,6.27442123 C23.7761194,6.27442123 23.8208955,6.27442123 23.8208955,6.23037832 C24.4029851,5.87803501 25.0298507,5.56973461 25.7462687,5.43760587 C26.1492537,5.39356296 26.5522388,5.34952005 26.9104478,5.43760587 C27.2238806,5.5256917 27.4477612,5.70186335 27.5820896,6.01016375 C27.7164179,6.36250706 27.6716418,6.71485037 27.6716418,7.11123659 L26.8656716,7.11123659 C26.5970149,7.11123659 26.2835821,7.11123659 26.0149254,7.1552795 C25.5223881,7.19932242 25.0746269,7.33145116 24.5820896,7.50762281 C23.7313433,7.85996612 23.238806,8.47656691 23.1044776,9.4014681 C23.0597015,9.79785432 23.0597015,10.2382835 23.1940299,10.6346697 C23.4626866,11.2512705 23.9104478,11.6916996 24.5820896,11.8678713 C24.7164179,11.9119142 24.8507463,11.9119142 25.0298507,11.9559571 L25.5671642,11.9559571 C25.7910448,11.9119142 26.0597015,11.9119142 26.2835821,11.8678713 C26.7761194,11.7797854 27.2238806,11.515528 27.5820896,11.1631846 C27.6268657,11.1191417 27.6716418,11.0750988 27.761194,11.0310559 C27.8059701,11.2953134 27.8059701,11.515528 27.8507463,11.7797854 L30,11.7797854 L30,11.6916996 C29.9104478,10.5906268 29.9104478,9.53359684 29.9104478,8.432524 Z M27.5373134,9.84189723 C27.2686567,10.1061547 27,10.2823264 26.6865672,10.4144551 C26.3731343,10.5025409 26.0597015,10.5465839 25.7462687,10.458498 C25.4328358,10.3704122 25.2985075,10.1501976 25.2537313,9.84189723 C25.2089552,9.53359684 25.2537313,9.22529644 25.4776119,8.96103896 C25.6567164,8.74082439 25.880597,8.60869565 26.1492537,8.52060982 C26.4626866,8.38848108 26.8208955,8.34443817 27.1343284,8.34443817 L27.6716418,8.34443817 L27.6716418,9.57763975 C27.6716418,9.66572558 27.6268657,9.75381141 27.5373134,9.84189723 L27.5373134,9.84189723 Z" id="Shape"></path>
                                </g>
                            </g>
                        </g>
                    </g>
                </g>
            </g>
        </g>
    </g>
</svg>